<mxfile host="app.diagrams.net" modified="2024-06-24T11:34:00.202Z" agent="Mozilla/5.0 (X11; Linux x86_64; rv:126.0) Gecko/20100101 Firefox/126.0" etag="Hw2mAvM9wZYgGqsvf8Uv" version="24.6.2" type="device">
  <diagram name="Page-1" id="LK8BpOP9N7L9Z5Uu5_VY">
    <mxGraphModel dx="1414" dy="705" grid="1" gridSize="10" guides="1" tooltips="1" connect="1" arrows="1" fold="1" page="1" pageScale="1" pageWidth="850" pageHeight="1100" math="0" shadow="0">
      <root>
        <mxCell id="0" />
        <mxCell id="1" parent="0" />
        <mxCell id="zeZ3aSOSSud5amWOwY-z-25" value="&lt;div&gt;Docker bridge mreža&lt;br&gt;&lt;/div&gt;" style="rounded=1;whiteSpace=wrap;html=1;fillColor=none;arcSize=3;dashed=1;labelPosition=center;verticalLabelPosition=top;align=right;verticalAlign=bottom;fontFamily=Times New Roman;" vertex="1" parent="1">
          <mxGeometry x="310" y="390" width="370" height="190" as="geometry" />
        </mxCell>
        <mxCell id="zeZ3aSOSSud5amWOwY-z-11" value="&lt;div&gt;dockercan mreža A&lt;/div&gt;" style="rounded=1;whiteSpace=wrap;html=1;fillColor=none;arcSize=3;dashed=1;labelPosition=center;verticalLabelPosition=top;align=left;verticalAlign=bottom;textDirection=ltr;fontFamily=Times New Roman;" vertex="1" parent="1">
          <mxGeometry x="40" y="180" width="260" height="190" as="geometry" />
        </mxCell>
        <mxCell id="zeZ3aSOSSud5amWOwY-z-12" value="dockercan mreža C" style="rounded=1;whiteSpace=wrap;html=1;fillColor=none;arcSize=3;dashed=1;labelPosition=center;verticalLabelPosition=bottom;align=center;verticalAlign=top;fontFamily=Times New Roman;" vertex="1" parent="1">
          <mxGeometry x="130" y="290" width="260" height="190" as="geometry" />
        </mxCell>
        <mxCell id="zeZ3aSOSSud5amWOwY-z-39" style="edgeStyle=orthogonalEdgeStyle;rounded=0;orthogonalLoop=1;jettySize=auto;html=1;startArrow=blockThin;startFill=1;endArrow=blockThin;endFill=1;fontFamily=Times New Roman;" edge="1" parent="1" source="zeZ3aSOSSud5amWOwY-z-13" target="zeZ3aSOSSud5amWOwY-z-38">
          <mxGeometry relative="1" as="geometry" />
        </mxCell>
        <mxCell id="zeZ3aSOSSud5amWOwY-z-13" value="&lt;div&gt;dockercan mreža B&lt;/div&gt;" style="rounded=1;whiteSpace=wrap;html=1;fillColor=none;arcSize=3;dashed=1;labelPosition=center;verticalLabelPosition=top;align=right;verticalAlign=bottom;fontFamily=Times New Roman;" vertex="1" parent="1">
          <mxGeometry x="220" y="180" width="260" height="190" as="geometry" />
        </mxCell>
        <mxCell id="zeZ3aSOSSud5amWOwY-z-3" value="&lt;div&gt;A_ECU 1&lt;br&gt;&lt;/div&gt;" style="rounded=1;whiteSpace=wrap;html=1;pointerEvents=0;strokeColor=default;align=center;verticalAlign=middle;fontFamily=Times New Roman;fontSize=12;fontColor=default;fillColor=default;container=0;" vertex="1" parent="1">
          <mxGeometry x="60" y="200" width="60" height="60" as="geometry" />
        </mxCell>
        <mxCell id="zeZ3aSOSSud5amWOwY-z-4" value="A_ECU 2" style="rounded=1;whiteSpace=wrap;html=1;pointerEvents=0;strokeColor=default;align=center;verticalAlign=middle;fontFamily=Times New Roman;fontSize=12;fontColor=default;fillColor=default;container=0;" vertex="1" parent="1">
          <mxGeometry x="60" y="280" width="60" height="60" as="geometry" />
        </mxCell>
        <mxCell id="zeZ3aSOSSud5amWOwY-z-5" value="&lt;div&gt;&lt;i&gt;cannelloni&lt;/i&gt;&lt;/div&gt;" style="rounded=1;whiteSpace=wrap;html=1;pointerEvents=0;strokeColor=default;align=center;verticalAlign=middle;fontFamily=Times New Roman;fontSize=12;fontColor=default;fillColor=default;container=0;" vertex="1" parent="1">
          <mxGeometry x="140" y="200" width="60" height="60" as="geometry" />
        </mxCell>
        <mxCell id="zeZ3aSOSSud5amWOwY-z-6" value="&lt;div&gt;poveznik&lt;br&gt;&lt;/div&gt;&amp;nbsp;ABC" style="rounded=1;whiteSpace=wrap;html=1;pointerEvents=0;strokeColor=default;align=center;verticalAlign=middle;fontFamily=Times New Roman;fontSize=12;fontColor=default;fillColor=default;container=0;" vertex="1" parent="1">
          <mxGeometry x="230" y="300" width="60" height="60" as="geometry" />
        </mxCell>
        <mxCell id="zeZ3aSOSSud5amWOwY-z-14" value="&lt;div&gt;B_ECU 1&lt;br&gt;&lt;/div&gt;" style="rounded=1;whiteSpace=wrap;html=1;pointerEvents=0;strokeColor=default;align=center;verticalAlign=middle;fontFamily=Times New Roman;fontSize=12;fontColor=default;fillColor=default;container=0;" vertex="1" parent="1">
          <mxGeometry x="320" y="200" width="60" height="60" as="geometry" />
        </mxCell>
        <mxCell id="zeZ3aSOSSud5amWOwY-z-16" value="&lt;div&gt;B_ECU 2&lt;br&gt;&lt;/div&gt;" style="rounded=1;whiteSpace=wrap;html=1;pointerEvents=0;strokeColor=default;align=center;verticalAlign=middle;fontFamily=Times New Roman;fontSize=12;fontColor=default;fillColor=default;container=0;" vertex="1" parent="1">
          <mxGeometry x="400" y="200" width="60" height="60" as="geometry" />
        </mxCell>
        <mxCell id="zeZ3aSOSSud5amWOwY-z-17" value="&lt;div&gt;kontejner&lt;/div&gt;&lt;div&gt;C_ECU 1&lt;br&gt;&lt;/div&gt;" style="rounded=1;whiteSpace=wrap;html=1;pointerEvents=0;strokeColor=default;align=center;verticalAlign=middle;fontFamily=Times New Roman;fontSize=12;fontColor=default;fillColor=default;container=0;" vertex="1" parent="1">
          <mxGeometry x="140" y="400" width="60" height="60" as="geometry" />
        </mxCell>
        <mxCell id="zeZ3aSOSSud5amWOwY-z-18" value="&lt;div&gt;kontejner&lt;/div&gt;&lt;div&gt;C_ECU 3&lt;br&gt;&lt;/div&gt;" style="rounded=1;whiteSpace=wrap;html=1;pointerEvents=0;strokeColor=default;align=center;verticalAlign=middle;fontFamily=Times New Roman;fontSize=12;fontColor=default;fillColor=default;container=0;" vertex="1" parent="1">
          <mxGeometry x="320" y="400" width="60" height="60" as="geometry" />
        </mxCell>
        <mxCell id="zeZ3aSOSSud5amWOwY-z-19" value="&lt;div&gt;kontejner&lt;/div&gt;&lt;div&gt;C_ECU 2&lt;br&gt;&lt;/div&gt;" style="rounded=1;whiteSpace=wrap;html=1;pointerEvents=0;strokeColor=default;align=center;verticalAlign=middle;fontFamily=Times New Roman;fontSize=12;fontColor=default;fillColor=default;container=0;" vertex="1" parent="1">
          <mxGeometry x="230" y="400" width="60" height="60" as="geometry" />
        </mxCell>
        <mxCell id="zeZ3aSOSSud5amWOwY-z-24" value="&lt;div&gt;poveznik&lt;br&gt;&lt;/div&gt;&amp;nbsp;AC" style="rounded=1;whiteSpace=wrap;html=1;pointerEvents=0;strokeColor=default;align=center;verticalAlign=middle;fontFamily=Times New Roman;fontSize=12;fontColor=default;fillColor=default;container=0;" vertex="1" parent="1">
          <mxGeometry x="140" y="300" width="60" height="60" as="geometry" />
        </mxCell>
        <mxCell id="zeZ3aSOSSud5amWOwY-z-26" value="&lt;div&gt;kontejner s programskim proširenjem&lt;/div&gt;&lt;div&gt;(GUI, &lt;i&gt;middleware &lt;/i&gt;simulatora ...)&lt;br&gt;&lt;/div&gt;" style="rounded=1;whiteSpace=wrap;html=1;pointerEvents=0;strokeColor=default;align=center;verticalAlign=middle;fontFamily=Times New Roman;fontSize=12;fontColor=default;fillColor=default;container=0;" vertex="1" parent="1">
          <mxGeometry x="520" y="410" width="140" height="150" as="geometry" />
        </mxCell>
        <mxCell id="zeZ3aSOSSud5amWOwY-z-32" value="CAN sklopovlje" style="sketch=0;outlineConnect=0;fontColor=#232F3E;gradientColor=none;strokeColor=#232F3E;fillColor=#ffffff;dashed=0;verticalLabelPosition=bottom;verticalAlign=top;align=center;html=1;fontSize=12;fontStyle=0;aspect=fixed;shape=mxgraph.aws4.resourceIcon;resIcon=mxgraph.aws4.hardware_board;fontFamily=Times New Roman;" vertex="1" parent="1">
          <mxGeometry x="760" y="245" width="60" height="60" as="geometry" />
        </mxCell>
        <mxCell id="zeZ3aSOSSud5amWOwY-z-34" value="TCP/UDP" style="endArrow=classic;startArrow=classic;html=1;rounded=0;entryX=0;entryY=0.5;entryDx=0;entryDy=0;fontFamily=Times New Roman;" edge="1" parent="1" target="zeZ3aSOSSud5amWOwY-z-26">
          <mxGeometry width="50" height="50" relative="1" as="geometry">
            <mxPoint x="380" y="430" as="sourcePoint" />
            <mxPoint x="430" y="380" as="targetPoint" />
          </mxGeometry>
        </mxCell>
        <mxCell id="zeZ3aSOSSud5amWOwY-z-36" value="Računalo domaćin" style="shape=umlFrame;whiteSpace=wrap;pointerEvents=0;width=159;height=26;fontFamily=Times New Roman;rounded=0;direction=east;html=1;labelBorderColor=none;strokeColor=default;align=center;verticalAlign=middle;fontSize=12;fontColor=default;fillColor=default;container=0;" vertex="1" parent="1">
          <mxGeometry x="20" y="100" width="700" height="510" as="geometry" />
        </mxCell>
        <mxCell id="zeZ3aSOSSud5amWOwY-z-40" style="edgeStyle=orthogonalEdgeStyle;rounded=0;orthogonalLoop=1;jettySize=auto;html=1;startArrow=blockThin;startFill=1;endArrow=blockThin;endFill=1;fontFamily=Times New Roman;" edge="1" parent="1" source="zeZ3aSOSSud5amWOwY-z-38" target="zeZ3aSOSSud5amWOwY-z-32">
          <mxGeometry relative="1" as="geometry" />
        </mxCell>
        <mxCell id="zeZ3aSOSSud5amWOwY-z-38" value="&lt;div&gt;SocketCAN&lt;/div&gt;" style="rounded=0;whiteSpace=wrap;html=1;fontFamily=Times New Roman;" vertex="1" parent="1">
          <mxGeometry x="650" y="265" width="70" height="20" as="geometry" />
        </mxCell>
        <mxCell id="zeZ3aSOSSud5amWOwY-z-48" style="edgeStyle=orthogonalEdgeStyle;rounded=0;orthogonalLoop=1;jettySize=auto;html=1;entryX=0.5;entryY=0;entryDx=0;entryDy=0;endArrow=blockThin;endFill=1;startArrow=blockThin;startFill=1;fontFamily=Times New Roman;" edge="1" parent="1" source="zeZ3aSOSSud5amWOwY-z-47" target="zeZ3aSOSSud5amWOwY-z-5">
          <mxGeometry relative="1" as="geometry">
            <mxPoint x="223" y="100" as="sourcePoint" />
            <Array as="points">
              <mxPoint x="223" y="150" />
              <mxPoint x="170" y="150" />
            </Array>
          </mxGeometry>
        </mxCell>
        <mxCell id="zeZ3aSOSSud5amWOwY-z-49" value="cannelloni&lt;br&gt;&lt;div&gt;CANoverTCP&lt;/div&gt;" style="edgeLabel;html=1;align=center;verticalAlign=middle;resizable=0;points=[];fontFamily=Times New Roman;" vertex="1" connectable="0" parent="zeZ3aSOSSud5amWOwY-z-48">
          <mxGeometry x="-0.4811" y="1" relative="1" as="geometry">
            <mxPoint as="offset" />
          </mxGeometry>
        </mxCell>
        <mxCell id="zeZ3aSOSSud5amWOwY-z-47" value="udaljeno računalo" style="image;points=[];aspect=fixed;html=1;align=center;shadow=0;dashed=0;image=img/lib/allied_telesis/computer_and_terminals/Personal_Computer.svg;labelPosition=center;verticalLabelPosition=top;verticalAlign=bottom;fontFamily=Times New Roman;" vertex="1" parent="1">
          <mxGeometry x="199.99999999999997" y="20" width="45.6" height="61.800000000000004" as="geometry" />
        </mxCell>
        <mxCell id="zeZ3aSOSSud5amWOwY-z-52" value="virtualno CAN sučelje" style="shape=loopLimit;whiteSpace=wrap;html=1;fontFamily=Times New Roman;" vertex="1" parent="1">
          <mxGeometry x="50" y="470" width="70" height="50" as="geometry" />
        </mxCell>
        <mxCell id="zeZ3aSOSSud5amWOwY-z-53" style="edgeStyle=orthogonalEdgeStyle;rounded=0;orthogonalLoop=1;jettySize=auto;html=1;entryX=0.173;entryY=0.989;entryDx=0;entryDy=0;entryPerimeter=0;startArrow=blockThin;startFill=1;endArrow=blockThin;endFill=1;" edge="1" parent="1" source="zeZ3aSOSSud5amWOwY-z-52" target="zeZ3aSOSSud5amWOwY-z-11">
          <mxGeometry relative="1" as="geometry" />
        </mxCell>
      </root>
    </mxGraphModel>
  </diagram>
</mxfile>
